<svg xmlns="http://www.w3.org/2000/svg" width="19" height="13.318" viewBox="0 0 19 13.318"><defs><style>.a{fill:#fff;}</style></defs><g transform="translate(0 -76.555)"><g transform="translate(0 76.555)"><path class="a" d="M12.54,77.048A9.484,9.484,0,0,0,0,86.073a14.51,14.51,0,0,0,.38,3.42.409.409,0,0,0,.38.38H18.145a.631.631,0,0,0,.475-.38,22.15,22.15,0,0,0,.38-3.42A9.413,9.413,0,0,0,12.54,77.048ZM9.5,78.473a.95.95,0,1,1,0,1.9.95.95,0,1,1,0-1.9Zm-6.65,8.55a.95.95,0,0,1,0-1.9.95.95,0,0,1,0,1.9Zm2.66-4.94a.918.918,0,0,1-1.33,0,1.149,1.149,0,0,1-.095-1.425.918.918,0,0,1,1.33,0A1.149,1.149,0,0,1,5.51,82.083Zm3.99,5.89c-1.045,0-1.995-.95-1.71-1.9s1.71-3.8,1.71-3.8,1.425,2.85,1.71,3.8S10.545,87.973,9.5,87.973Zm5.415-5.89a.94.94,0,1,1,0-1.33A1.139,1.139,0,0,1,14.915,82.083Zm1.235,4.94a.95.95,0,1,1,.95-.95A.9.9,0,0,1,16.15,87.023Z" transform="translate(0 -76.555)"/></g></g></svg>