<svg xmlns="http://www.w3.org/2000/svg" width="15.133" height="15.133" viewBox="0 0 15.133 15.133"><defs><style>.a{fill:#fff;}</style></defs><path class="a" d="M14.593,3.783h-2.7V.54A.54.54,0,0,0,11.35,0H.54A.54.54,0,0,0,0,.54V12.971a2.162,2.162,0,0,0,2.162,2.162H12.971a2.162,2.162,0,0,0,2.162-2.162V4.324A.54.54,0,0,0,14.593,3.783ZM4.324,2.7H7.566a.54.54,0,0,1,0,1.081H4.324a.54.54,0,1,1,0-1.081ZM9.188,12.971H2.7a.54.54,0,1,1,0-1.081H9.188a.54.54,0,0,1,0,1.081Zm0-2.162H2.7a.54.54,0,1,1,0-1.081H9.188a.54.54,0,1,1,0,1.081Zm0-2.162H2.7a.54.54,0,1,1,0-1.081H9.188a.54.54,0,0,1,0,1.081Zm0-2.162H2.7A.54.54,0,1,1,2.7,5.4H9.188a.54.54,0,0,1,0,1.081Zm4.864,6.486a1.081,1.081,0,1,1-2.162,0V4.864h2.162v8.107Z"/></svg>