<svg xmlns="http://www.w3.org/2000/svg" width="18.505" height="11.896" viewBox="0 0 18.505 11.896"><defs><style>.a{fill:#1939c5;}</style></defs><g transform="translate(0 -91.365)"><path class="a" d="M18.3,96.6a11.029,11.029,0,0,0-3.888-3.8,9.985,9.985,0,0,0-10.316,0A11.026,11.026,0,0,0,.206,96.6a1.333,1.333,0,0,0,0,1.425,11.024,11.024,0,0,0,3.888,3.8,10,10,0,0,0,10.316.005A10.955,10.955,0,0,0,18.3,98.025a1.333,1.333,0,0,0,0-1.425ZM7.037,93.776a3.022,3.022,0,0,1,2.215-.924.5.5,0,1,1,0,.991A2.151,2.151,0,0,0,7.1,95.991a.5.5,0,1,1-.992,0A3.022,3.022,0,0,1,7.037,93.776Zm6.7,6.908a8.65,8.65,0,0,1-8.973,0,10.658,10.658,0,0,1-3.444-3.372,10.149,10.149,0,0,1,3.934-3.645,4.513,4.513,0,0,0-.63,2.323,4.456,4.456,0,0,0,1.358,3.268,4.455,4.455,0,0,0,3.268,1.358,4.456,4.456,0,0,0,3.268-1.358,4.454,4.454,0,0,0,1.358-3.268,4.512,4.512,0,0,0-.63-2.323,10.15,10.15,0,0,1,3.934,3.645A10.656,10.656,0,0,1,13.739,100.685Z" transform="translate(0)"/></g></svg>