<svg xmlns="http://www.w3.org/2000/svg" width="124.002" height="104.644" viewBox="0 0 124.002 104.644"><defs><style>.a{fill:#fff;}</style></defs><path class="a" d="M1.939,109.622a1.936,1.936,0,0,0,1.938-1.938V96.346c0-.048-.025-.091-.029-.14s.029-.091.029-.14A11.637,11.637,0,0,1,15.5,84.441h8.717L35.263,99.188c.043.058.112.081.161.132a1.688,1.688,0,0,0,.229.258,1.805,1.805,0,0,0,.219.114,1.693,1.693,0,0,0,.186.1,1.9,1.9,0,0,0,.756.176h0a1.92,1.92,0,0,0,.754-.174,2.017,2.017,0,0,0,.192-.1,2.072,2.072,0,0,0,.215-.112,2.036,2.036,0,0,0,.229-.256c.048-.052.118-.076.161-.134L49.412,84.441h8.717A11.637,11.637,0,0,1,69.754,96.067c0,.048.025.091.029.14s-.029.091-.029.14v11.339a1.938,1.938,0,0,0,3.875,0V101.9H88.16a9.7,9.7,0,0,0,9.688-9.688V82.531h.969a1.936,1.936,0,0,0,1.938-1.938V67.03a1.936,1.936,0,0,0-1.938-1.938h-.969V63.132h10.575a1.937,1.937,0,0,0,1.36-.558l5.894-5.817a1.933,1.933,0,0,0,.577-1.38V14.711a1.937,1.937,0,0,0-1.938-1.938h-3.875V8.883h9.686V107.71a1.938,1.938,0,0,0,3.875,0V6.945a1.937,1.937,0,0,0-1.938-1.938H108.524c-.008,0-.012,0-.019,0s-.012,0-.019,0H83.335c-.008,0-.012,0-.019,0s-.012,0-.019,0H71.69a1.938,1.938,0,1,0,0,3.875h9.688v3.891H77.5a1.937,1.937,0,0,0-1.938,1.938V55.378a1.932,1.932,0,0,0,.568,1.37l5.813,5.817a1.932,1.932,0,0,0,1.37.568H93.972v1.961H93a1.936,1.936,0,0,0-1.938,1.938V80.593A1.936,1.936,0,0,0,93,82.531h.969v9.684a5.82,5.82,0,0,1-5.813,5.813H73.63v-1.68c0-.048-.025-.091-.029-.14s.029-.091.029-.14a15.519,15.519,0,0,0-15.5-15.5h-7.75V75.253a29.084,29.084,0,0,0,15.5-25.683V28.257A13.573,13.573,0,0,0,54.254,14.849V6.944a1.937,1.937,0,0,0-1.938-1.938H32.94A25.218,25.218,0,0,0,7.751,30.195V49.526c0,.008,0,.015,0,.023s0,.015,0,.023a29.084,29.084,0,0,0,15.5,25.687v5.315H15.5A15.519,15.519,0,0,0,0,96.075c0,.048.025.091.029.14S0,96.305,0,96.354v11.339a1.934,1.934,0,0,0,1.938,1.93ZM85.253,8.883h21.314v3.891H85.253Zm27.126,7.766V36H79.44V16.649ZM79.44,54.575v-14.7h32.939V54.568l-4.751,4.689H84.118Zm15.5,14.392h1.938v1.938H94.941Zm1.938,5.813v3.875H94.941V74.781ZM32.94,8.875H50.378v7.75a1.937,1.937,0,0,0,1.938,1.938A9.7,9.7,0,0,1,62,28.251V35.2l-4.443-4.443c-.006-.006-.015-.008-.021-.014a1.917,1.917,0,0,0-.4-.267,1.955,1.955,0,0,0-.233-.147,1.992,1.992,0,0,0-.324-.064.869.869,0,0,0-.637-.027,1.889,1.889,0,0,0-.506.11.1.1,0,0,0-.023,0,52.215,52.215,0,0,1-18.6,3.712,52.41,52.41,0,0,1-18.6-3.714c-.008,0-.017,0-.025-.006a1.859,1.859,0,0,0-.469-.1,1.965,1.965,0,0,0-.275-.052,2.135,2.135,0,0,0-.217.041,1.947,1.947,0,0,0-.51.1c-.048.019-.087.062-.134.085a1.934,1.934,0,0,0-.5.327c-.006.006-.014.006-.019.012l-4.445,4.431v-5A21.344,21.344,0,0,1,32.94,8.875ZM11.627,49.565c0-.008,0-.015,0-.023s0-.015,0-.023V40.658L17.9,34.4a55.9,55.9,0,0,0,18.911,3.542A55.974,55.974,0,0,0,55.724,34.4L62,40.679v8.886a25.189,25.189,0,0,1-50.377,0ZM36.815,78.629a28.837,28.837,0,0,0,9.688-1.7v4.923L36.815,94.794,27.127,81.857V76.933A28.837,28.837,0,0,0,36.815,78.629Z" transform="translate(-0.001 -5.004)"/></svg>