<svg xmlns="http://www.w3.org/2000/svg" width="16.633" height="19.009" viewBox="0 0 16.633 19.009"><defs><style>.a{fill:#fff;}</style></defs><g transform="translate(-32.005)"><g transform="translate(32.005)"><path class="a" d="M117.735,3.168h7.128a.4.4,0,0,0,.4-.4V1.98A1.189,1.189,0,0,0,124.071.792h-1.405a1.576,1.576,0,0,0-2.734,0h-1.405a1.19,1.19,0,0,0-1.188,1.188v.792A.4.4,0,0,0,117.735,3.168Z" transform="translate(-114.171)"/><path class="a" d="M249.694,277.333a4.356,4.356,0,1,0,4.356,4.356A4.361,4.361,0,0,0,249.694,277.333Zm2.657,3.053-3.168,3.168a.4.4,0,0,1-.561,0l-1.584-1.584a.4.4,0,1,1,.56-.56l1.3,1.3,2.888-2.888a.4.4,0,0,1,.561.56Z" transform="translate(-237.418 -267.036)"/><path class="a" d="M40.626,59.356A5.145,5.145,0,0,1,45.752,50.8a.388.388,0,0,0,.349-.062.4.4,0,0,0,.159-.318V43.854a1.189,1.189,0,0,0-1.187-1.188h-.792a.4.4,0,0,0-.4.4v.792A1.19,1.19,0,0,1,42.7,45.042H35.569a1.189,1.189,0,0,1-1.188-1.188v-.792a.4.4,0,0,0-.4-.4h-.792A1.189,1.189,0,0,0,32,43.854V58.9a1.189,1.189,0,0,0,1.188,1.188H40.42a.4.4,0,0,0,.205-.735Z" transform="translate(-32.005 -41.082)"/></g></g></svg>