<svg xmlns="http://www.w3.org/2000/svg" width="16.674" height="16.672" viewBox="0 0 16.674 16.672"><defs><style>.a{fill:#3dbff9;}</style></defs><g transform="translate(0 -0.028)"><path class="a" d="M15.595,1.107a3.677,3.677,0,0,0-5.2,0L.847,10.646a.477.477,0,0,0-.135.274L0,16.157a.476.476,0,0,0,.135.4.485.485,0,0,0,.338.142.386.386,0,0,0,.064,0L3.7,16.27a.48.48,0,1,0-.128-.952l-2.53.341.494-3.652,3.844,3.844a.485.485,0,0,0,.338.142.47.47,0,0,0,.338-.142l9.543-9.539a3.675,3.675,0,0,0,0-5.2ZM10.575,2.28l1.6,1.6L3.469,12.59l-1.6-1.6ZM5.718,14.835,4.151,13.268,12.859,4.56l1.567,1.567Zm9.376-9.394L11.26,1.608a2.723,2.723,0,0,1,3.833,3.833Z" transform="translate(0)"/></g></svg>