<?xml version="1.0" encoding="utf-8"?>
<!-- Generator: Adobe Illustrator 24.0.1, SVG Export Plug-In . SVG Version: 6.00 Build 0)  -->
<svg version="1.1" id="Layer_1" xmlns="http://www.w3.org/2000/svg" xmlns:xlink="http://www.w3.org/1999/xlink" x="0px" y="0px"
	 viewBox="0 0 512 512" style="enable-background:new 0 0 512 512;" xml:space="preserve">
<style type="text/css">
	.st0{clip-path:url(#SVGID_2_);}
	.st1{fill:#FFFFFF;}
	.st2{fill:url(#Path_413_1_);}
	.st3{fill:#1B82D4;}
	.st4{fill:#303030;}
</style>
<g id="Group_231" transform="translate(-4284 92)">
	<g id="Group_230" transform="translate(4284 -92)">
		<g id="Group_225" transform="translate(10.244)">
			<g id="Group_224">
				<g>
					<defs>
						<path id="SVGID_1_" d="M142.2,200.3h113.5V55.6H142.2c-39.9,0-72.3,32.4-72.3,72.4C70,167.9,102.3,200.3,142.2,200.3z"/>
					</defs>
					<clipPath id="SVGID_2_">
						<use xlink:href="#SVGID_1_"  style="overflow:visible;"/>
					</clipPath>
					<g id="Group_223" class="st0">
						<g id="WfySEE.tif" transform="translate(-12.77 -20.95)">
							<g id="Group_222">
								<path id="Path_337" d="M285,148.3h10.6v42.6h-10.5v10.8h-10.8v-10.5h-21.1V223h10.6v-10.7H285v-10.7h10.6V223h-10.4v10.7
									h-10.7v10.6h21.1v10.6H221v-10.4h-10.6v-10.8h-10.8l0,0V223h10.6v-10.6h-10.6v-42.8h-10.7V159h10.8v-10.6h10.6l-0.1-0.1
									v10.6H253v-10.6l-0.1,0.1h10.7l0-0.1v10.6h21.4L285,148.3L285,148.3z M242.2,201.6v-31.8h-31.8v31.8L242.2,201.6z
									 M253.2,169.8v10.4h31.7v-10.4H253.2z M231.8,212.5V223h10.3v-10.5H231.8z M231.8,233.9v10.5h10.3v-10.5H231.8z
									 M263.5,244.4v-10.4h-10.4v10.4H263.5z"/>
								<path id="Path_338" d="M124.8,52.2V41.5h-10.6V9.6h10.5V20h10.6v10.6h10.7V9.5h32.1V-1.1h10.6V9.3h21.2v32.1h-21v32h31.7
									v21.4h-10.4v10.8h-10.8l0,0V84.2h-21.4V52.3h-10.7v10.6h-10.6l0.1-21.4H178V20.3H157v21.2h-21.4v10.7L124.8,52.2L124.8,52.2
									z"/>
								<path id="Path_339" d="M103.3,62.7H28.8v-74.5h74.5V62.7z M92.6,52.1V-1.1H39.5v53.1L92.6,52.1z"/>
								<path id="Path_340" d="M221.1,62.7v-74.5h74.5v74.5H221.1z M284.9-1.1h-53.1V52h53.1V-1.1z"/>
								<path id="Path_341" d="M199.6,105.6V127l0-0.1h-32.1v-10.5h-10.6v21.2h-10.6v21.3h10.6l-0.1,10.8l0.1,0h-21.3V159h-10.8
									l0.1,0.1v-10.6h10.5v-10.7h-10.4v-10.8h-10.8l0.1,0v-10.7h-10.7l0,0v-10.8H92.7l0.1,0.1V94.9l-0.1,0h21.4l-0.1,0v10.8h10.8
									v10.6h10.7v10.5h10.6v-21.3h32V94.9H189v10.7L199.6,105.6L199.6,105.6z"/>
								<path id="Path_342" d="M242.3,84.2v10.7h10.6v10.6h21.4v10.7h21.2v21.4H285l0,0v-10.8h-21.5v-10.4H253v31.9l0.1-0.1h-42.8
									l0.1,0.1v-10.8h-10.7v-10.6l0,0.1h21.3v-10.8h10.8v10.6h10.5v-10.5h-10.6V84.2L242.3,84.2L242.3,84.2z"/>
								<path id="Path_343" d="M146.2,201.7h-10.5v-21.3h21.2v-10.8l-0.1,0h10.7v-10.8h10.8v32.1h-10.8v10.6h-10.6l0.1,0.1v-10.6
									h-10.7L146.2,201.7L146.2,201.7z"/>
								<path id="Path_344" d="M87.4,180.4h10.7l-0.1,0v10.7h10.7l-0.1-0.1v10.7h10.7l0,0v10.7l0-0.1h-10.7v10.7l0.1,0H98.1v10.7
									l0.1,0H87.6v-21.3H98v-10.6H87.4L87.4,180.4L87.4,180.4z"/>
								<path id="Path_345" d="M39.3,126.9H28.8v-32h31.9l-0.1-0.1v21.2H50.1v-10.3H39.3L39.3,126.9L39.3,126.9z"/>
								<path id="Path_346" d="M71.4,94.9H60.7l0.1,0.1V84.3H28.8V73.7h42.6L71.4,94.9L71.4,94.9z"/>
								<path id="Path_347" d="M146.2,233.8v-10.7l0,0.1h10.7v-10.7l-0.1,0.1h21.4l-0.1,0l0.1,10.7h-10.8v10.7l0.1,0L146.2,233.8
									L146.2,233.8z"/>
								<path id="Path_348" d="M114.1,126.9v21.4H92.7l0.1,0v-10.7l-0.1,0h10.7v-10.7l0,0.1L114.1,126.9L114.1,126.9z"/>
								<path id="Path_349" d="M114.1,94.9V73.5h10.7l0,0v10.8h10.5v10.6L114.1,94.9L114.1,94.9z"/>
								<path id="Path_350" d="M82,159v10.6H50.2V159L82,159L82,159z"/>
								<path id="Path_351" d="M39.3,127h10.7v10.6h10.6v10.7H39.3l0.1,0L39.3,127L39.3,127z"/>
								<path id="Path_352" d="M242.3,84.2V73.7h32v10.6l0,0L242.3,84.2L242.3,84.2z"/>
								<path id="Path_353" d="M114.2-11.8h21.1v10.4h-21.1V-11.8z"/>
								<path id="Path_354" d="M124.8,169v21.2h-10.5V169L124.8,169L124.8,169z"/>
								<path id="Path_355" d="M285,137.6v10.7l0,0h-21.4l0,0.1v-10.7L285,137.6L285,137.6z"/>
								<path id="Path_356" d="M39.3,148.3v10.5H28.8v-10.5L39.3,148.3L39.3,148.3z"/>
								<path id="Path_357" d="M92.7,148.3V159l0-0.1H82l0,0v-10.7l0,0L92.7,148.3L92.7,148.3z"/>
								<path id="Path_358" d="M274.3,84.2h10.7l-0.1,0v10.6h-10.6L274.3,84.2L274.3,84.2z"/>
								<path id="Path_359" d="M285.1,84.2V73.7h10.5v10.5L285.1,84.2L285.1,84.2z"/>
								<path id="Path_360" d="M98,159h10.5v10.5H98L98,159L98,159z"/>
								<path id="Path_361" d="M92.7,84.2v10.7l0.1,0H82l0,0V84.2L92.7,84.2L92.7,84.2z"/>
								<path id="Path_362" d="M92.8,84.2V73.7h10.5v10.5L92.8,84.2L92.8,84.2z"/>
								<path id="Path_363" d="M124.8,73.5V62.8l0,0.1l10.8-0.1v10.7L124.8,73.5L124.8,73.5z"/>
								<path id="Path_364" d="M199.7,62.7V52.3h10.5v10.4H199.7z"/>
								<path id="Path_365" d="M146.2,212.4v-10.7l0,0h10.7l-0.1-0.1v10.7l0.1-0.1L146.2,212.4L146.2,212.4z"/>
								<path id="Path_366" d="M124.8,62.8h-10.6V52.2h10.6l0-0.1L124.8,62.8L124.8,62.8z"/>
								<path id="Path_367" d="M146.2,223.1h-10.5v-10.6h10.6l0-0.1L146.2,223.1L146.2,223.1z"/>
								<path id="Path_368" d="M210.1-1.4h-10.4v-10.4h10.4V-1.4z"/>
								<path id="Path_369" d="M199.6,233.8v10.7h-10.7l0,0.1l-0.1-10.8L199.6,233.8L199.6,233.8z"/>
								<path id="Path_377" class="st1" d="M263.7,148.3h21.4v10.6h-21.4V148.3z"/>
								<path id="Path_379" class="st1" d="M231.8,233.9h10.3v10.5h-10.3V233.9z"/>
								<path id="Path_380" class="st1" d="M263.6,244.4h-10.4v-10.4h10.4V244.4z"/>
								<path id="Path_382" class="st1" d="M157,41.5V20.3H178v21.2L157,41.5L157,41.5z"/>
								<path id="Path_384" class="st1" d="M135.5,52.2V41.6H157l-0.1-0.1c0,7.1-0.1,14.3-0.1,21.4l0.1-0.1h-10.8l0.1,0.1V52.1
									h-10.7L135.5,52.2z"/>
								<path id="Path_385" class="st1" d="M124.8,62.9V52.1l10.8,0.1l-0.1-0.1v10.7l0.1-0.1L124.8,62.9z"/>
								<path id="Path_386" class="st1" d="M92.6,52.1H39.5V-1.1h53.1V52.1z M50.1,41.3h31.7V9.6H50.1V41.3z"/>
								<path id="Path_387" class="st1" d="M284.9-1.1V52h-53.1V-1.1H284.9z M242.4,41.3h31.7V9.5h-31.7V41.3z"/>
								<path id="Path_388" class="st1" d="M39.4,244.3v-53.1h53.1v53.1H39.4z M81.9,233.7v-31.8H50.1v31.8H81.9z"/>
								<path id="Path_393" class="st1" d="M82,94.9h10.7v10.7H82V94.9z"/>
								<path id="Path_395" class="st1" d="M146.1,233.8h21.4v10.6h-21.4V233.8z"/>
								<path id="Path_396" class="st1" d="M167.5,233.8v-10.7h10.8l-0.1-0.1v10.8l0.1-0.1L167.5,233.8z"/>
								<path id="Path_397" class="st1" d="M188.9,233.7l0.1,10.8h-10.7v-10.8l-0.1,0.1h10.8L188.9,233.7z"/>
								<path id="Path_402" d="M178.2,159v-10.6h10.8V159H178.2z"/>
								<path id="Path_403" d="M178.2,212.4v-10.6h10.5v10.5L178.2,212.4L178.2,212.4z"/>
								<path id="Path_404" d="M188.9,233.8h-10.8v-10.8h10.8V233.8z"/>
								<path id="Path_405" d="M167.6,159h-10.8v-21.4h10.8V159z"/>
								<path id="Path_406" d="M231.5,180.5v10.4h-10.4v-10.4H231.5z"/>
								<path id="Path_407" d="M146.2,73.7H157v10.6h-10.8V73.7z"/>
								<path id="Path_408" d="M135.4,62.9V52.1h10.8v10.7H135.4z"/>
								<path id="Path_409" d="M178.3,84.2v10.8h-10.6V84.2H178.3z"/>
								<path id="Path_410" d="M50.1,41.3V9.5h31.7v31.8H50.1z"/>
								<path id="Path_411" d="M242.4,41.3V9.5h31.7v31.7H242.4z"/>
							</g>
						</g>
					</g>
				</g>
			</g>
			
				<linearGradient id="Path_413_1_" gradientUnits="userSpaceOnUse" x1="-121.6994" y1="499.4156" x2="-121.6994" y2="503.637" gradientTransform="matrix(44.022 0 0 -34.264 5698.9526 17312.2578)">
				<stop  offset="4.900000e-02" style="stop-color:#FF7D3F"/>
				<stop  offset="0.439" style="stop-color:#F7B24B"/>
				<stop  offset="0.755" style="stop-color:#F7D94B"/>
				<stop  offset="0.852" style="stop-color:#FABB2D"/>
				<stop  offset="0.983" style="stop-color:#FF8E00"/>
			</linearGradient>
			<path id="Path_413" class="st2" d="M362.1,55.6H248.6v144.6h113.5c39.9,0,72.3-32.4,72.3-72.3C434.4,88,402,55.6,362.1,55.6
				C362.1,55.6,362.1,55.6,362.1,55.6z"/>
		</g>
		<g id="Group_229" transform="translate(0 44.899)">
			<g id="Group_228">
				<g id="Group_226">
					<path id="Path_414" d="M80.7,336.1h21.5v43.6c0,12.3-2.5,21.4-7.4,27.3c-5,5.9-12.9,8.8-23.8,8.8c-22.7,0-34.1-11.9-34.1-35.6
						V236.7c0-24.3,11.4-36.4,34.1-36.4c20.8,0,31.3,12,31.3,35.9v37.4H80.7v-37.4c0.2-3.2-0.5-6.4-2.2-9.1c-1.9-2.2-4.7-3.3-7.6-3
						c-6.7,0-10,4-10,12v143.8c0,8.2,3.3,12.3,10,12.3c6.5,0,9.7-4.1,9.7-12.3L80.7,336.1z"/>
					<path id="Path_415" d="M168.9,413.5c-0.5-3.3-0.8-6.7-0.8-10c-4.3,7.3-12.3,11.7-20.8,11.5c-5.8,0.3-11.4-2.3-14.9-7
						c-3.8-6-5.6-13-5.1-20.1v-133h21.2v129.6c0,6.3,2.5,9.5,7.4,9.5c1.9,0,3.7-0.5,5.4-1.4c1.8-1.1,3.3-2.8,4.1-4.7v-133h21.5
						v158.6H168.9z"/>
					<path id="Path_416" d="M215.5,413.5V254.9h17.9c0.5,3.2,0.8,6.5,0.8,9.7c2.8-7.1,9.8-11.7,17.4-11.5c1.7,0,3.3,0.3,4.9,1v23.9
						c-1.1-0.7-2.4-1.2-3.7-1.4c-1.5-0.3-3-0.4-4.5-0.4c-2.2,0-4.5,0.5-6.5,1.4c-2.3,1.1-4.1,3.1-5,5.5v130.4L215.5,413.5z"/>
					<path id="Path_417" d="M279.3,234.6v-32h21.3v32L279.3,234.6z M279.3,413.5V254.9h21.3v158.6H279.3z"/>
					<path id="Path_418" d="M328,284.1c-0.6-8.5,2-16.9,7.2-23.6c4.8-5.5,12.3-8.2,22.6-8.2c8.2-0.6,16.3,2.4,22.2,8.2
						c5.4,6.6,8.1,15,7.6,23.6v100.2c0.6,8.5-2.1,16.9-7.6,23.5c-5.9,5.7-14,8.6-22.2,8.1c-10.3,0-17.8-2.7-22.6-8.1
						c-5.2-6.7-7.8-15-7.2-23.5L328,284.1z M366.4,284.8c0.2-2.7-0.5-5.4-1.8-7.8c-1.7-2-4.3-3-6.9-2.7c-2.7-0.3-5.3,0.7-7.1,2.7
						c-1.4,2.3-2.1,5.1-1.9,7.8v98.9c-0.2,2.7,0.5,5.4,1.9,7.7c1.8,1.9,4.4,2.9,7.1,2.6c2.6,0.3,5.2-0.7,6.9-2.7
						c1.3-2.4,2-5.1,1.8-7.8V284.8z"/>
				</g>
				<g id="Group_227">
					<path id="Path_419" class="st3" d="M80.7,336.1h21.5v43.6c0,12.3-2.5,21.4-7.4,27.3c-5,5.9-12.9,8.8-23.8,8.8
						c-22.7,0-34.1-11.9-34.1-35.6V236.7c0-24.3,11.4-36.4,34.1-36.4c20.8,0,31.3,12,31.3,35.9v37.4H80.7v-37.4
						c0.2-3.2-0.5-6.4-2.2-9.1c-1.9-2.2-4.7-3.3-7.6-3c-6.7,0-10,4-10,12v143.8c0,8.2,3.3,12.3,10,12.3c6.5,0,9.7-4.1,9.7-12.3
						L80.7,336.1z"/>
					<path id="Path_420" class="st3" d="M168.9,413.5c-0.5-3.3-0.8-6.7-0.8-10c-4.3,7.3-12.3,11.7-20.8,11.5
						c-5.8,0.3-11.4-2.3-14.9-7c-3.8-6-5.6-13-5.1-20.1v-133h21.2v129.6c0,6.3,2.5,9.5,7.4,9.5c1.9,0,3.7-0.5,5.4-1.4
						c1.8-1.1,3.3-2.8,4.1-4.7v-133h21.5v158.6H168.9z"/>
					<path id="Path_421" class="st3" d="M215.5,413.5V254.9h17.9c0.5,3.2,0.8,6.5,0.8,9.7c2.8-7.1,9.8-11.7,17.4-11.5
						c1.7,0,3.3,0.3,4.9,1v23.9c-1.1-0.7-2.4-1.2-3.7-1.4c-1.5-0.3-3-0.4-4.5-0.4c-2.2,0-4.5,0.5-6.5,1.4c-2.3,1.1-4.1,3.1-5,5.5
						v130.4L215.5,413.5z"/>
					<path id="Path_422" class="st3" d="M279.3,234.6v-32h21.3v32L279.3,234.6z M279.3,413.5V254.9h21.3v158.6H279.3z"/>
					<path id="Path_423" class="st3" d="M328,284.1c-0.6-8.5,2-16.9,7.2-23.6c4.8-5.5,12.3-8.2,22.6-8.2c8.2-0.6,16.3,2.4,22.2,8.2
						c5.4,6.6,8.1,15,7.6,23.6v100.2c0.6,8.5-2.1,16.9-7.6,23.5c-5.9,5.7-14,8.6-22.2,8.1c-10.3,0-17.8-2.7-22.6-8.1
						c-5.2-6.7-7.8-15-7.2-23.5L328,284.1z M366.4,284.8c0.2-2.7-0.5-5.4-1.8-7.8c-1.7-2-4.3-3-6.9-2.7c-2.7-0.3-5.3,0.7-7.1,2.7
						c-1.4,2.3-2.1,5.1-1.9,7.8v98.9c-0.2,2.7,0.5,5.4,1.9,7.7c1.8,1.9,4.4,2.9,7.1,2.6c2.6,0.3,5.2-0.7,6.9-2.7
						c1.3-2.4,2-5.1,1.8-7.8V284.8z"/>
				</g>
			</g>
			<path id="Path_424" class="st4" d="M423.4,282.2v-72.6h-8.6v-9.3h26.3v9.3h-8.5v72.6H423.4z"/>
			<path id="Path_425" class="st4" d="M479.4,282.2v-23.9c0-5.4,0-10.7,0.1-16c0.1-5.3,0.2-10.6,0.3-16c-0.5,3.4-0.9,6.8-1.4,10.3
				c-0.5,3.5-1,7.4-1.6,11.8c-0.6,4.3-1.2,9.2-1.9,14.7c-0.7,5.5-1.5,11.8-2.4,19.1h-8l-7.2-55.9c0.1,5.4,0.2,10.7,0.3,16
				c0.1,5.3,0.1,10.6,0.1,16v23.9h-8.4v-81.9h12.2c1,9.3,1.9,17.1,2.6,23.4c0.7,6.3,1.4,11.8,1.9,16.3c0.5,4.5,1,8.4,1.3,11.6
				s0.7,6.2,1,9.1c0.3-2.8,0.7-5.9,1.1-9.1s0.8-7.1,1.4-11.6s1.2-10,1.9-16.4c0.7-6.4,1.6-14.2,2.6-23.4h12.5v81.9L479.4,282.2z"/>
		</g>
	</g>
</g>
</svg>
